<svg xmlns="http://www.w3.org/2000/svg" width="2797.111" height="5782.163" viewBox="0 0 2797.111 5782.163">
  <g id="Group_1106" data-name="Group 1106" transform="translate(596.252 297)">
    <path id="bigblue" d="M110.106,1246.436c322.638,17.006,1060.5,178.558,1328.44-335.86S2403.123-20.478,2464.957.779s16.489,2117.192,16.489,2117.192S1125.261,1510.022,420.377,1867.139,110.106,1246.436,110.106,1246.436Z" transform="translate(2200.859 5037.683) rotate(180)" fill="rgba(55,127,247,0.09)"/>
    <path id="bigpurple" d="M0,0C241.251,0,979.552,90.652,1118.661,626.388s979.991,581.107,1001.932,618.841,12.189,958.449,12.189,958.449-565.57,72.953-816.663,337.093-1101.882,208.8-1187.206,130.812S0,0,0,0Z" transform="translate(1730.592 5485.163) rotate(180)" fill="rgba(90,14,248,0.04)"/>
    <path id="bigpurple-2" data-name="bigpurple" d="M-19219-437.717c191.121,0,776.014,90.652,886.219,626.388s776.369,581.107,793.748,618.841,9.658,958.449,9.658,958.449-448.055,72.953-646.975,337.092-872.928,208.8-940.521,130.812S-19219-437.717-19219-437.717Z" transform="translate(19054.758 140.717)" fill="rgba(90,14,248,0.04)"/>
    <path id="bigblue-2" data-name="bigblue" d="M-19469.561,1194.64c266.643,17.006,876.445,178.558,1097.881-335.86s797.176-931.054,848.277-909.8,13.625,2117.192,13.625,2117.192-1120.811-607.948-1703.361-250.832S-19469.561,1194.64-19469.561,1194.64Z" transform="translate(18964.305 183)" fill="rgba(55,127,247,0.09)"/>
  </g>
</svg>
