<svg id="idicon" xmlns="http://www.w3.org/2000/svg" xmlns:xlink="http://www.w3.org/1999/xlink" width="110.609" height="110.61" viewBox="0 0 110.609 110.61">
  <defs>
    <linearGradient id="linear-gradient" x1="0.5" x2="0.5" y2="1" gradientUnits="objectBoundingBox">
      <stop offset="0" stop-color="#1573f6"/>
      <stop offset="1" stop-color="#6301f8"/>
    </linearGradient>
  </defs>
  <path id="Path_1005" data-name="Path 1005" d="M128.58,279.877c.062,0,.123,0,.185,0s.123,0,.185,0a7.691,7.691,0,1,0-.371,0Z" transform="translate(-94.918 -207.358)" fill="url(#linear-gradient)"/>
  <path id="Path_1006" data-name="Path 1006" d="M126.812,377a11.352,11.352,0,0,0-11.175-11.318c-.062,0-.123,0-.185,0s-.123,0-.185,0A11.352,11.352,0,0,0,104.092,377v5.5h22.72Z" transform="translate(-81.604 -286.682)" fill="url(#linear-gradient)"/>
  <path id="Path_1007" data-name="Path 1007" d="M16.006,146.625H0v78.934H67.7V146.625H51.689V157.57H16.006Zm3.669,33.156A14.172,14.172,0,1,1,43.4,190.241a17.793,17.793,0,0,1,8.289,15.026v11.978H16.006V205.267A17.793,17.793,0,0,1,24.3,190.241a14.138,14.138,0,0,1-4.621-10.46Z" transform="translate(0 -114.949)" fill="url(#linear-gradient)"/>
  <path id="Path_1008" data-name="Path 1008" d="M208.7.1H182.092a13.074,13.074,0,0,0-1.644-.1V.1h-25.8a12.977,12.977,0,0,0-12.974,12.949v1.2h6.481v-1.2a6.488,6.488,0,0,1,6.493-6.468h26.959a6.486,6.486,0,0,1,5.333,6.365V62.307a17.369,17.369,0,0,0,34.737,0V13.053A12.976,12.976,0,0,0,208.7.1Zm6.493,62.2a10.888,10.888,0,0,1-21.775,0V12.949a12.847,12.847,0,0,0-1.678-6.365H208.7a6.488,6.488,0,0,1,6.493,6.468Z" transform="translate(-111.068)" fill="url(#linear-gradient)"/>
  <path id="Path_1009" data-name="Path 1009" d="M104.092,95.962h22.72v15.409h-22.72Z" transform="translate(-81.604 -75.231)" fill="url(#linear-gradient)"/>
</svg>
